<?xml version="1.0" encoding="UTF-8"?>
<svg xmlns="http://www.w3.org/2000/svg" viewBox="0 0 194 182" width="194" height="182">
<path d="M0.08 0.08C64.69 0.08 129.31 0.08 193.92 0.08C193.92 60.69 193.92 121.31 193.92 181.92C129.31 181.92 64.69 181.92 0.08 181.92C0.08 121.31 0.08 60.69 0.08 0.08ZM80.5 6.46C77.28 5.04 74.1 8.12 71.57 9.74C64.8 14.06 57.62 17.82 50.65 21.81C40.9 27.4 31.19 33.03 21.44 38.62C17.9 40.65 12.41 42.07 11.41 46.52C10.04 52.57 11.47 59.38 11.56 65.5C11.76 79.16 11.58 92.84 11.58 106.5C11.58 111.17 10.34 126.15 11.88 129.62C13.07 132.28 16.94 131.06 19.17 130.99C25.01 130.8 37 133.23 41.63 129.5C41.63 113.06 41.63 96.61 41.63 80.17C59.25 89.76 76.88 99.35 94.5 108.94C111.5 99.31 128.5 89.67 145.5 80.04C147.22 82.05 146.44 86.99 146.33 89.5C146 97.38 146.12 105.28 146.12 113.17C146.13 115.72 147.42 120.59 145.44 122.62C140.67 127.48 125.34 130.73 122.09 136.58C120.76 138.98 121.62 141.93 121.64 144.5C121.7 150.37 121.83 156.3 121.62 162.17C121.53 164.71 120.86 168.35 123.5 169.73C128.28 168.25 132.73 164.71 137.04 162.21C145.69 157.19 154.33 152.13 163.01 147.18C166.03 145.46 174.34 142.23 175.82 139.33C178.53 133.99 176.32 125.88 176.32 120.17C176.3 104.61 176.32 89.06 176.32 73.5C176.32 62.5 176.34 51.5 176.32 40.5C176.31 36.66 178.02 31.14 174.5 28.46C167.64 30.14 162.01 35.41 155.97 38.8C142.75 46.22 129.34 53.31 116.43 61.25C111.38 64.36 106.22 67.25 101.14 70.31C99.11 71.53 96.29 74.08 93.83 74.06C90.17 74.04 86.22 70.07 83.24 68.25C74.9 63.16 65.68 59.11 57.67 53.5C57.97 51.27 61.52 49.82 63.4 48.87C68.44 46.32 74.01 44.12 78.62 40.79C81.66 38.6 81.22 35.55 81.03 32.17C80.69 26.04 82.99 11.3 80.5 6.46Z" fill="#000000" fill-rule="evenodd" stroke="#000000" stroke-width="0.25" stroke-linejoin="round"/>
<path d="M80.5 6.46C82.99 11.3 80.69 26.04 81.03 32.17C81.22 35.55 81.66 38.6 78.62 40.79C74.01 44.12 68.44 46.32 63.4 48.87C61.52 49.82 57.97 51.27 57.67 53.5C65.68 59.11 74.9 63.16 83.24 68.25C86.22 70.07 90.17 74.04 93.83 74.06C96.29 74.08 99.11 71.53 101.14 70.31C106.22 67.25 111.38 64.36 116.43 61.25C129.34 53.31 142.75 46.22 155.97 38.8C162.01 35.41 167.64 30.14 174.5 28.46C178.02 31.14 176.31 36.66 176.32 40.5C176.34 51.5 176.32 62.5 176.32 73.5C176.32 89.06 176.3 104.61 176.32 120.17C176.32 125.88 178.53 133.99 175.82 139.33C174.34 142.23 166.03 145.46 163.01 147.18C154.33 152.13 145.69 157.19 137.04 162.21C132.73 164.71 128.28 168.25 123.5 169.73C120.86 168.35 121.53 164.71 121.62 162.17C121.83 156.3 121.7 150.37 121.64 144.5C121.62 141.93 120.76 138.98 122.09 136.58C125.34 130.73 140.67 127.48 145.44 122.62C147.42 120.59 146.13 115.72 146.12 113.17C146.12 105.28 146 97.38 146.33 89.5C146.44 86.99 147.22 82.05 145.5 80.04C128.5 89.67 111.5 99.31 94.5 108.94C76.88 99.35 59.25 89.76 41.63 80.17C41.63 96.61 41.63 113.06 41.63 129.5C37 133.23 25.01 130.8 19.17 130.99C16.94 131.06 13.07 132.28 11.88 129.62C10.34 126.15 11.58 111.17 11.58 106.5C11.58 92.84 11.76 79.16 11.56 65.5C11.47 59.38 10.04 52.57 11.41 46.52C12.41 42.07 17.9 40.65 21.44 38.62C31.19 33.03 40.9 27.4 50.65 21.81C57.62 17.82 64.8 14.06 71.57 9.74C74.1 8.12 77.28 5.04 80.5 6.46Z" fill="#2d02ff" fill-rule="evenodd" stroke="#2d02ff" stroke-width="0.25" stroke-linejoin="round"/>
</svg>